<?xml version="1.0" encoding="UTF-8"?>
<svg id="Layer_2" data-name="Layer 2" xmlns="http://www.w3.org/2000/svg" viewBox="0 0 200 200">
  <defs>
    <style>
      .cls-1 {
        fill: #fff;
        opacity: .5;
      }

      .cls-2 {
        fill: #c86297;
      }
    </style>
  </defs>
  <g id="Layer_1-2" data-name="Layer 1">
    <rect class="cls-2" width="200" height="200"/>
    <path class="cls-1" d="m170.18,101.66c-.03.86-.37,1.73-.69,2.54-.51,1.32-1.42,2.38-2.42,3.37-2.87,2.85-5.75,5.7-8.61,8.56-3.32,3.32-6.62,6.67-9.94,9.99-5.64,5.64-11.28,11.28-16.92,16.92-4.85,4.85-9.69,9.69-14.54,14.54-3.24,3.24-6.45,6.49-9.72,9.7-1.21,1.19-2.69,2.1-4.33,2.46-1.2.26-2.52.14-3.77.04-1.35-.1-2.65-.58-3.61-1.52-4.79-4.66-9.53-9.38-14.27-14.1-8.54-8.52-17.07-17.06-25.6-25.59-7.38-7.39-14.74-14.78-22.16-22.13-1.19-1.19-2.04-2.57-2.31-4.14-.27-1.55-.3-3.18.13-4.77.5-1.89,1.74-3.24,3.07-4.56,2.83-2.81,5.66-5.61,8.48-8.44,1.17-1.17,2.3-2.4,3.47-3.58,1.33-1.34,2.7-2.64,4.04-3.97,2.41-2.41,4.82-4.83,7.23-7.25,4.49-4.5,8.99-9.01,13.48-13.52,1.09-1.1,2.18-2.19,3.26-3.3.65-.67.87-.68,1.54-.01,2.08,2.09,4.16,4.18,6.24,6.27,2.75,2.75,5.49,5.5,8.25,8.23.37.35.46.68.26,1.13-.68,1.52-.6,3.15-.47,4.72.15,1.91.97,3.62,2.08,5.2.89,1.26,2.13,2.09,3.29,3.03.03.02.07.05.1.06,1.09.15,1.09.89,1.09,1.77-.03,11.81-.05,23.61.03,35.41,0,1.29-.72,1.63-1.51,2.17-.58.39-1.12.85-1.63,1.32-.55.51-1.11,1.02-1.53,1.63-.49.7-.84,1.49-1.21,2.27-.17.33-.23.71-.36,1.06-.64,1.76-.42,3.56-.23,5.35.05.44.4.85.49,1.29.24,1.2.95,2.16,1.63,3.08.61.82,1.52,1.43,2.32,2.11.86.73,1.93,1.04,2.97,1.44,1.02.39,2,.54,3.06.42.78-.09,1.59.05,2.35-.11,1.7-.35,3.32-1,4.6-2.16,1.35-1.23,2.58-2.57,3.25-4.37.52-1.41.95-2.83.88-4.3-.1-1.89-.6-3.68-1.61-5.34-.82-1.34-1.98-2.32-3.08-3.36-.06-.06-.12-.12-.2-.15-1.02-.33-1.14-1.09-1.13-2.05.02-11.66.01-23.32.02-34.99,0-.29.03-.58.05-.87.06-.03.13-.05.19-.08.36.34.73.68,1.08,1.03,4.08,4.07,8.14,8.14,12.22,12.2.43.42.48.83.31,1.37-.53,1.72-.74,3.46-.38,5.26.37,1.94,1.18,3.69,2.44,5.16.78.91,1.78,1.69,2.82,2.32,1.9,1.14,4.01,1.57,6.24,1.44,2.26-.14,4.27-.97,5.98-2.37,2.16-1.79,3.53-4.09,3.96-6.93.27-1.71.08-3.36-.46-4.97-.4-1.21-1.05-2.31-1.87-3.35-.94-1.22-2.08-2.15-3.4-2.83-1.04-.54-2.24-.76-3.38-1.1-1.5-.46-2.97-.05-4.44.22-.57.1-.99.05-1.42-.38-4.72-4.75-9.46-9.48-14.2-14.21-.33-.33-.35-.6-.24-1.07.34-1.3.77-2.61.37-3.99-.25-.89-.31-1.85-.67-2.69-.43-1.02-1.08-1.96-1.64-2.93-.77-1.34-2.05-2.12-3.32-2.83-1-.56-2.18-.83-3.3-1.17-.46-.14-.96-.2-1.44-.17-1.06.06-2.14.16-3.19.35-.51.09-.83-.01-1.18-.36-3.3-3.32-6.61-6.62-9.92-9.93-1.64-1.64-3.28-3.29-4.93-4.91-.4-.4-.44-.68,0-1.1,4.01-3.99,7.98-8.01,12.01-11.97,1.16-1.14,2.56-2.14,4.17-2.31,2.07-.21,4.25-.45,6.19.67.88.51,1.69,1.18,2.43,1.89,2.26,2.19,4.48,4.43,6.71,6.66.71.71,1.41,1.45,2.13,2.17,2.17,2.15,4.36,4.3,6.52,6.46,1.6,1.59,3.16,3.2,4.75,4.79,2.13,2.12,4.28,4.21,6.4,6.33,1.61,1.61,3.18,3.25,4.78,4.86,1.26,1.27,2.56,2.5,3.82,3.76,1.97,1.97,3.91,3.96,5.87,5.93,1.19,1.2,2.41,2.36,3.6,3.55,1.88,1.88,3.73,3.79,5.61,5.66,1.42,1.42,2.88,2.8,4.3,4.22,2.05,2.06,4.09,4.12,6.1,6.21.67.69,1.27,1.45,1.84,2.23.2.29.14.76.31,1.09.74,1.39.49,2.88.43,4.32Z"/>
  </g>
</svg>