<?xml version="1.0" encoding="UTF-8"?>
<svg id="Layer_2" data-name="Layer 2" xmlns="http://www.w3.org/2000/svg" viewBox="0 0 200 200">
  <defs>
    <style>
      .cls-1 {
        fill: #589fff;
      }

      .cls-2 {
        fill: #fff;
        opacity: .5;
      }
    </style>
  </defs>
  <g id="Layer_1-2" data-name="Layer 1">
    <rect class="cls-1" width="200" height="200"/>
    <path class="cls-2" d="m174.86,101.48c-.03.93-.4,1.86-.74,2.74-.55,1.42-1.53,2.56-2.61,3.63-3.09,3.07-6.19,6.14-9.27,9.22-3.58,3.58-7.13,7.18-10.71,10.76-6.07,6.07-12.15,12.15-18.22,18.22-5.22,5.22-10.44,10.44-15.66,15.66-3.49,3.49-6.95,6.99-10.47,10.45-1.3,1.28-2.9,2.26-4.66,2.65-1.29.28-2.71.15-4.06.04-1.45-.11-2.85-.62-3.89-1.64-5.16-5.02-10.26-10.1-15.37-15.19-9.2-9.18-18.39-18.38-27.57-27.56-7.95-7.96-15.88-15.92-23.87-23.84-1.28-1.28-2.2-2.77-2.49-4.46-.29-1.67-.32-3.43.14-5.14.54-2.04,1.87-3.49,3.31-4.91,3.05-3.03,6.1-6.04,9.13-9.09,1.26-1.26,2.48-2.59,3.74-3.86,1.43-1.44,2.91-2.84,4.35-4.28,2.6-2.6,5.19-5.2,7.79-7.81,4.84-4.85,9.68-9.7,14.52-14.56,1.17-1.18,2.35-2.36,3.51-3.55.7-.72.94-.73,1.66-.01,2.24,2.25,4.48,4.5,6.72,6.75,2.96,2.96,5.91,5.92,8.89,8.86.4.38.5.73.28,1.22-.73,1.64-.65,3.39-.51,5.08.16,2.06,1.04,3.9,2.24,5.6.96,1.36,2.29,2.25,3.54,3.26.03.02.08.05.11.06,1.17.16,1.17.96,1.17,1.91-.03,12.72-.05,25.43.03,38.14,0,1.39-.78,1.76-1.63,2.34-.62.42-1.21.92-1.76,1.42-.59.55-1.2,1.1-1.65,1.76-.53.75-.9,1.6-1.3,2.45-.18.36-.25.76-.39,1.14-.69,1.9-.45,3.83-.25,5.76.05.47.43.92.53,1.39.26,1.29,1.02,2.33,1.76,3.32.66.88,1.64,1.54,2.5,2.27.93.79,2.08,1.12,3.2,1.55,1.1.42,2.15.58,3.3.45.84-.1,1.71.05,2.53-.12,1.83-.38,3.58-1.08,4.95-2.33,1.45-1.32,2.78-2.77,3.5-4.71.56-1.52,1.02-3.05.95-4.63-.11-2.04-.65-3.96-1.73-5.75-.88-1.44-2.13-2.5-3.32-3.62-.06-.06-.13-.13-.22-.16-1.1-.36-1.23-1.17-1.22-2.21.02-12.56.01-25.12.02-37.69,0-.31.03-.62.05-.94.06-.03.14-.05.2-.09.39.37.79.73,1.16,1.11,4.39,4.38,8.77,8.77,13.16,13.14.46.45.52.89.33,1.48-.57,1.85-.8,3.73-.41,5.67.4,2.09,1.27,3.97,2.63,5.56.84.98,1.92,1.82,3.04,2.5,2.05,1.23,4.32,1.69,6.72,1.55,2.43-.15,4.6-1.04,6.44-2.55,2.33-1.93,3.8-4.41,4.27-7.46.29-1.84.09-3.62-.5-5.35-.43-1.3-1.13-2.49-2.01-3.61-1.01-1.31-2.24-2.32-3.66-3.05-1.12-.58-2.41-.82-3.64-1.18-1.62-.5-3.2-.05-4.78.24-.61.11-1.07.05-1.53-.41-5.08-5.12-10.19-10.21-15.29-15.31-.36-.36-.38-.65-.26-1.15.37-1.4.83-2.81.4-4.3-.27-.96-.33-1.99-.72-2.9-.46-1.1-1.16-2.11-1.77-3.16-.83-1.44-2.21-2.28-3.58-3.05-1.08-.6-2.35-.89-3.55-1.26-.5-.15-1.03-.22-1.55-.18-1.14.06-2.31.17-3.44.38-.55.1-.89-.01-1.27-.39-3.55-3.58-7.12-7.13-10.68-10.7-1.77-1.77-3.53-3.54-5.31-5.29-.43-.43-.47-.73-.01-1.18,4.32-4.3,8.6-8.63,12.94-12.89,1.25-1.23,2.76-2.31,4.49-2.49,2.23-.23,4.58-.48,6.67.72.95.55,1.82,1.27,2.62,2.04,2.43,2.36,4.83,4.77,7.23,7.17.76.76,1.52,1.56,2.29,2.34,2.34,2.32,4.7,4.63,7.02,6.96,1.72,1.71,3.4,3.45,5.12,5.16,2.29,2.28,4.61,4.53,6.89,6.82,1.73,1.73,3.43,3.5,5.15,5.23,1.36,1.37,2.76,2.69,4.11,4.05,2.12,2.12,4.21,4.27,6.32,6.39,1.28,1.29,2.6,2.54,3.88,3.82,2.02,2.02,4.02,4.08,6.04,6.1,1.53,1.53,3.1,3.02,4.63,4.55,2.21,2.22,4.41,4.44,6.57,6.69.72.74,1.37,1.56,1.98,2.4.22.31.15.82.33,1.17.8,1.5.53,3.1.46,4.65Z"/>
  </g>
</svg>