<?xml version="1.0" encoding="UTF-8"?>
<svg id="Layer_2" data-name="Layer 2" xmlns="http://www.w3.org/2000/svg" viewBox="0 0 200 200">
  <defs>
    <style>
      .cls-1 {
        fill: #fac064;
      }

      .cls-2 {
        fill: #fff;
        opacity: .5;
      }
    </style>
  </defs>
  <g id="Layer_1-2" data-name="Layer 1">
    <rect class="cls-1" width="200" height="200"/>
    <path class="cls-2" d="m173.14,102.71c.03.8-.12,1.6-.18,2.39-.14,1.53-.25,3.05-.4,4.57-.36,3.66-1.05,7.27-1.99,10.83-2.27,8.6-6.01,16.5-11.18,23.73-2.77,3.88-5.89,7.47-9.38,10.74-4.4,4.13-9.23,7.66-14.49,10.62-3.79,2.11-7.73,3.92-11.86,5.27-2.24.74-4.23-.07-5.55-2.01-.95-1.38-1.43-2.91-1.43-4.58-.01-6.7-.08-13.4.03-20.1.03-2.1.08-4.18-.27-6.25-.17-1.05-.64-2.05-.98-3.07-.05-.17-.12-.34-.2-.58,3.93-.7,7.66-1.66,11.27-3.04,4.68-1.77,9.01-4.14,12.83-7.43,6.3-5.44,9.89-12.31,10.9-20.54.17-1.48.08-2.99.1-4.5.02-1.03.08-2.07.03-3.1-.13-3.43-.74-6.78-1.78-10.04-1.38-4.33-3.54-8.22-6.53-11.64-.2-.21-.44-.38-.58-.61-.12-.2-.22-.51-.13-.67,1.23-2.28,1.65-4.77,1.79-7.29.18-3.27.06-6.55-1.18-9.65-.46-1.18-1.13-2.27-1.66-3.42-.35-.75-.95-.97-1.66-.88-1.78.21-3.57.37-5.32.74-4.31.91-8.17,2.87-11.65,5.54-1.12.86-2.14,1.84-3.16,2.81-.39.38-.73.5-1.25.36-2.48-.6-4.95-1.25-7.45-1.71-1.65-.31-3.36-.39-5.05-.47-2.16-.12-4.32-.22-6.47-.17-2.33.05-4.68.16-6.98.46-3.05.39-6.07.99-8.97,2.06-.39.15-.61.07-.9-.23-2.67-2.82-5.79-5.02-9.3-6.67-2.06-.97-4.18-1.72-6.41-2.13-1.47-.27-2.96-.42-4.45-.59-.79-.08-1.35.23-1.8.95-1.75,2.76-2.61,5.81-2.74,9.03-.14,3.39.02,6.78,1.43,9.96.21.47.44.95.73,1.38.27.37.18.6-.09.9-1.77,1.86-3.28,3.89-4.58,6.09-2.32,3.93-3.73,8.18-4.38,12.68-.2,1.35-.32,2.72-.43,4.07-.05.6.03,1.21.06,1.83.01.21.05.43.03.64-.25,6.96,1.7,13.27,5.63,18.95,2.43,3.5,5.54,6.33,9.08,8.69,3,2,6.21,3.57,9.59,4.8,3.22,1.16,6.52,2.14,9.93,2.65.31.05.6.2.9.29-.34,1.04-.79,2-.94,3-.29,2.05-.47,4.1-.59,6.17-.03.54-.18.7-.65.87-2.37.86-4.81.98-7.29.91-3.84-.1-7.32-1.24-10.44-3.48-1.87-1.35-3.11-3.24-4.42-5.1-2.37-3.35-5.52-5.59-9.67-6.24-1.11-.18-2.23-.2-3.32.12-1.21.36-1.47,1.27-.59,2.17.54.55,1.12,1.09,1.75,1.54,3.03,2.13,4.99,5.1,6.6,8.33.97,1.96,1.71,4.03,3.13,5.76,3.53,4.24,8.01,6.65,13.43,7.49,2.15.34,4.29.34,6.44.24,1.41-.06,2.81-.39,4.22-.61.24-.03.5-.07.82-.12.03.31.08.57.07.81-.02,1.36-.1,2.73-.1,4.09,0,1.27.1,2.54.12,3.81.02,2.25-.7,4.22-2.35,5.78-1.24,1.18-2.75,1.53-4.33,1.05-3.48-1.06-6.77-2.57-10.01-4.23-5.41-2.77-10.37-6.2-14.94-10.21-4.31-3.78-8.09-8.03-11.38-12.71-4.73-6.7-8.23-14.01-10.48-21.9-1.18-4.14-1.98-8.34-2.44-12.61-.4-3.64-.57-7.29-.32-10.96.58-8.99,2.53-17.64,6.18-25.88,2.77-6.25,6.36-12,10.73-17.24,3.94-4.75,8.44-8.93,13.44-12.54,3.5-2.53,7.22-4.7,11.12-6.58,4.09-1.96,8.32-3.55,12.7-4.7,2.46-.65,4.99-1.06,7.51-1.5,1.55-.28,3.13-.36,4.69-.59,3.33-.49,6.67-.53,10-.29,2.61.2,5.22.54,7.82.87,5.57.7,10.9,2.31,16.1,4.37,4.22,1.68,8.25,3.7,12.02,6.21,2.81,1.88,5.5,3.96,8.14,6.09,3.46,2.79,6.47,6.03,9.27,9.48,4.87,5.98,8.67,12.56,11.44,19.74,1.84,4.76,3.16,9.67,3.95,14.72.32,2.03.49,4.1.67,6.16.17,2.02.3,4.05.38,6.08Z"/>
  </g>
</svg>