<?xml version="1.0" encoding="UTF-8"?>
<svg id="Layer_2" data-name="Layer 2" xmlns="http://www.w3.org/2000/svg" viewBox="0 0 200 200">
  <defs>
    <style>
      .cls-1 {
        fill: #fff;
        opacity: .75;
      }

      .cls-2 {
        fill: #d98b7e;
      }
    </style>
  </defs>
  <g id="Layer_1-2" data-name="Layer 1">
    <g>
      <rect class="cls-2" width="200" height="200"/>
      <path class="cls-1" d="m54.47,140.31c6.47-4.8,13.53-8.6,21.16-11.38,7.63-2.78,15.75-4.17,24.37-4.17s16.74,1.39,24.37,4.17c7.63,2.78,14.68,6.58,21.16,11.38,4.74-5.21,8.49-11.23,11.26-18.08,2.77-6.85,4.15-14.26,4.15-22.24,0-16.88-5.94-31.26-17.8-43.13-11.87-11.87-26.25-17.8-43.13-17.8s-31.26,5.94-43.13,17.8c-11.87,11.87-17.8,26.25-17.8,43.13,0,7.98,1.38,15.39,4.15,22.24,2.77,6.85,6.52,12.87,11.26,18.08Zm45.53-34.6c-6.95,0-12.82-2.39-17.59-7.16-4.78-4.77-7.16-10.64-7.16-17.59s2.39-12.82,7.16-17.59c4.77-4.78,10.64-7.16,17.59-7.16s12.82,2.39,17.59,7.16c4.78,4.77,7.16,10.64,7.16,17.59s-2.39,12.82-7.16,17.59c-4.77,4.78-10.64,7.16-17.59,7.16Zm0,66.65c-10.05,0-19.47-1.89-28.28-5.67-8.8-3.78-16.46-8.93-22.98-15.44-6.51-6.51-11.66-14.17-15.44-22.98-3.78-8.8-5.67-18.23-5.67-28.28,0-10.05,1.89-19.47,5.67-28.28,3.78-8.8,8.93-16.46,15.44-22.98,6.51-6.51,14.17-11.66,22.98-15.44,8.8-3.78,18.23-5.67,28.28-5.67s19.47,1.89,28.28,5.67c8.8,3.78,16.46,8.93,22.98,15.44,6.51,6.51,11.66,14.17,15.44,22.98,3.78,8.8,5.67,18.23,5.67,28.28s-1.89,19.47-5.67,28.28c-3.78,8.8-8.93,16.46-15.44,22.98-6.51,6.51-14.17,11.66-22.98,15.44-8.8,3.78-18.23,5.67-28.28,5.67Zm0-11.43c6.87,0,13.5-1.11,19.89-3.32,6.38-2.21,12.05-5.31,17-9.28-4.95-3.83-10.54-6.81-16.78-8.95-6.24-2.14-12.94-3.21-20.1-3.21s-13.88,1.06-20.14,3.17c-6.26,2.11-11.84,5.11-16.74,8.99,4.95,3.97,10.62,7.07,17,9.28,6.38,2.21,13.01,3.32,19.89,3.32Zm0-66.65c3.79,0,6.96-1.27,9.51-3.82,2.55-2.55,3.82-5.72,3.82-9.51s-1.27-6.96-3.82-9.51c-2.55-2.55-5.72-3.82-9.51-3.82s-6.96,1.27-9.51,3.82c-2.55,2.55-3.82,5.72-3.82,9.51s1.27,6.96,3.82,9.51c2.55,2.55,5.72,3.82,9.51,3.82Z"/>
    </g>
  </g>
</svg>