<?xml version="1.0" encoding="UTF-8"?>
<svg id="Layer_2" data-name="Layer 2" xmlns="http://www.w3.org/2000/svg" viewBox="0 0 200 200">
  <defs>
    <style>
      .cls-1 {
        fill: #fff;
        opacity: .75;
      }

      .cls-2 {
        fill: #d98b7e;
      }
    </style>
  </defs>
  <g id="Layer_1-2" data-name="Layer 1">
    <g>
      <rect class="cls-2" width="200" height="200"/>
      <path class="cls-1" d="m100.95,162.16c-7.61,0-14.78-1.25-21.51-3.76-6.73-2.51-12.83-6.01-18.31-10.49l-14.6,14.4c-1.15,1.17-2.6,1.75-4.38,1.75s-3.24-.58-4.4-1.75c-1.16-1.17-1.75-2.63-1.75-4.41,0-1.77.58-3.23,1.75-4.38l14.39-14.4c-4.48-5.48-7.98-11.62-10.48-18.43-2.51-6.8-3.76-14.02-3.76-21.64,0-17.62,6.11-32.54,18.32-44.77,12.22-12.23,27.13-18.34,44.73-18.34h63.05v63.11c0,17.62-6.11,32.54-18.32,44.77-12.22,12.23-27.13,18.34-44.73,18.34Zm0-12.62c14.01,0,25.92-4.91,35.73-14.73,9.81-9.82,14.71-21.74,14.71-35.76v-50.49h-50.44c-14.01,0-25.92,4.91-35.73,14.73-9.81,9.82-14.71,21.74-14.71,35.76,0,5.85.95,11.41,2.85,16.68,1.9,5.28,4.53,10.03,7.91,14.26l43.75-43.79c1.15-1.17,2.6-1.75,4.38-1.75s3.25.59,4.43,1.77c1.29,1.29,1.93,2.78,1.93,4.47s-.65,3.19-1.96,4.5l-43.75,43.71c4.23,3.38,8.97,5.99,14.24,7.85,5.27,1.86,10.83,2.78,16.67,2.78Z"/>
    </g>
  </g>
</svg>