<?xml version="1.0" encoding="UTF-8"?>
<svg id="Layer_2" data-name="Layer 2" xmlns="http://www.w3.org/2000/svg" viewBox="0 0 200 200">
  <defs>
    <style>
      .cls-1 {
        fill: #fff;
        opacity: .75;
      }

      .cls-2 {
        fill: #d98b7e;
      }
    </style>
  </defs>
  <g id="Layer_1-2" data-name="Layer 1">
    <g>
      <rect class="cls-2" width="200" height="200"/>
      <path class="cls-1" d="m163.99,170.87l-23.87-23.87v19.25h-11.19v-38.42h38.42v11.19h-19.44l23.87,23.87-7.79,7.98h0Zm-64.9-2.01c-9.8,0-19.02-1.86-27.64-5.58-8.62-3.72-16.12-8.77-22.5-15.15-6.38-6.38-11.43-13.88-15.15-22.5-3.72-8.62-5.58-17.83-5.58-27.63,0-9.8,1.86-19.02,5.58-27.64,3.72-8.62,8.77-16.13,15.15-22.51,6.38-6.38,13.88-11.43,22.5-15.15,8.62-3.72,17.83-5.58,27.63-5.58s19.02,1.86,27.64,5.58c8.62,3.72,16.13,8.77,22.51,15.15,6.38,6.38,11.43,13.88,15.15,22.5,3.72,8.62,5.58,17.84,5.58,27.64,0,2.25-.11,4.5-.32,6.74-.21,2.25-.53,4.49-.96,6.74h-11.49c.53-2.25.92-4.5,1.18-6.74.26-2.25.39-4.5.39-6.74,0-2.71-.18-5.42-.54-8.13-.36-2.71-.92-5.4-1.69-8.08h-27.73c.47,2.68.81,5.37,1.02,8.08.21,2.71.32,5.42.32,8.13,0,2.25-.08,4.5-.23,6.74-.15,2.25-.38,4.49-.68,6.74h-11.19c.3-2.25.53-4.5.68-6.74.15-2.25.23-4.5.23-6.74,0-2.71-.11-5.42-.32-8.13-.21-2.71-.55-5.4-1.02-8.08h-37.07c-.47,2.68-.81,5.37-1.02,8.09-.21,2.71-.32,5.43-.32,8.14s.11,5.42.32,8.12c.21,2.7.55,5.39,1.02,8.07h27.43v11.19h-24.86c1.65,5.87,3.79,11.5,6.4,16.89,2.62,5.39,5.8,10.47,9.56,15.23,2.25,0,4.5-.13,6.74-.39,2.25-.26,4.49-.52,6.74-.77v11.35c-2.25.25-4.5.5-6.74.77-2.25.26-4.5.39-6.74.39h0Zm-57.46-54.66h27.73c-.47-2.68-.81-5.37-1.02-8.09-.21-2.71-.32-5.43-.32-8.14s.11-5.42.32-8.12c.21-2.7.55-5.39,1.02-8.07h-27.73c-.77,2.68-1.33,5.37-1.69,8.09-.36,2.71-.54,5.43-.54,8.14s.18,5.42.54,8.12c.36,2.7.92,5.39,1.69,8.07Zm4.69-43.61h25.27c1.29-5.41,2.99-10.65,5.13-15.71,2.13-5.06,4.77-9.89,7.92-14.5-8.37,1.86-15.87,5.42-22.52,10.7-6.64,5.28-11.91,11.78-15.8,19.51Zm38.32,85.01c-3-4.66-5.58-9.52-7.74-14.58-2.16-5.06-3.91-10.27-5.27-15.64h-25.31c3.89,7.68,9.17,14.16,15.84,19.44,6.67,5.28,14.16,8.87,22.48,10.77Zm-1.52-85.01h31.93c-1.59-5.87-3.73-11.48-6.41-16.82-2.69-5.34-5.87-10.44-9.55-15.31-3.71,4.76-6.9,9.84-9.58,15.23-2.67,5.39-4.8,11.02-6.39,16.89Zm43.43,0h25.31c-3.89-7.73-9.16-14.24-15.8-19.55-6.64-5.3-14.15-8.86-22.52-10.67,3,4.66,5.55,9.53,7.63,14.61,2.09,5.08,3.88,10.28,5.38,15.6Z"/>
    </g>
  </g>
</svg>