<?xml version="1.0" encoding="UTF-8"?>
<svg id="Layer_2" data-name="Layer 2" xmlns="http://www.w3.org/2000/svg" viewBox="0 0 200 200">
  <defs>
    <style>
      .cls-1 {
        fill: #fff;
        opacity: .75;
      }

      .cls-2 {
        fill: #d98b7e;
      }
    </style>
  </defs>
  <g id="Layer_1-2" data-name="Layer 1">
    <g>
      <rect class="cls-2" width="200" height="200"/>
      <path class="cls-1" d="m96.21,164.21v-11.68h56.92c.65,0,1.21-.2,1.69-.6.47-.4.71-.92.71-1.57v-54.48c0-14.89-5.33-27.43-15.98-37.61-10.66-10.18-23.5-15.27-38.54-15.27s-27.89,5.09-38.54,15.27c-10.66,10.18-15.98,22.72-15.98,37.61v45.87h-5.84c-3.73,0-6.94-1.3-9.62-3.9-2.68-2.6-4.01-5.77-4.01-9.5v-15.13c0-2.53.72-4.84,2.16-6.94,1.44-2.1,3.32-3.79,5.63-5.07l.36-9.95c.64-8.48,2.84-16.33,6.61-23.56,3.76-7.23,8.59-13.52,14.49-18.88,5.89-5.36,12.69-9.53,20.4-12.52,7.71-2.99,15.83-4.49,24.36-4.49s16.63,1.5,24.3,4.49c7.67,2.99,14.47,7.15,20.4,12.46,5.93,5.32,10.76,11.59,14.49,18.82,3.72,7.23,5.95,15.08,6.67,23.56l.36,9.75c2.27,1.07,4.13,2.6,5.59,4.58,1.46,1.99,2.19,4.2,2.19,6.65v17.39c0,2.45-.73,4.66-2.19,6.65-1.46,1.99-3.33,3.52-5.59,4.58v9.62c0,3.83-1.38,7.1-4.13,9.8-2.75,2.7-6.07,4.05-9.95,4.05,0,0-56.92,0-56.92,0Zm-17.08-52.43c-1.91,0-3.53-.65-4.88-1.94-1.34-1.29-2.01-2.89-2.01-4.8s.67-3.52,2.01-4.84c1.34-1.32,2.97-1.98,4.88-1.98,1.91,0,3.53.66,4.88,1.98,1.34,1.32,2.01,2.93,2.01,4.84s-.67,3.51-2.01,4.8c-1.34,1.29-2.97,1.94-4.88,1.94Zm43.74,0c-1.91,0-3.53-.65-4.88-1.94-1.34-1.29-2.01-2.89-2.01-4.8s.67-3.52,2.01-4.84c1.34-1.32,2.97-1.98,4.88-1.98,1.91,0,3.53.66,4.88,1.98,1.34,1.32,2.01,2.93,2.01,4.84s-.67,3.51-2.01,4.8c-1.34,1.29-2.97,1.94-4.88,1.94Zm-65.72-12.22c-.81-12.71,3.15-23.59,11.86-32.63,8.72-9.04,19.51-13.56,32.37-13.56,10.81,0,20.34,3.34,28.6,10.03,8.26,6.69,13.28,15.34,15.05,25.97-11.07-.13-21.29-3.04-30.67-8.72-9.38-5.68-16.59-13.47-21.61-23.37-1.98,9.69-6.12,18.25-12.43,25.69-6.31,7.44-14.04,12.97-23.17,16.6Z"/>
    </g>
  </g>
</svg>