<?xml version="1.0" encoding="UTF-8"?>
<svg id="Layer_2" data-name="Layer 2" xmlns="http://www.w3.org/2000/svg" viewBox="0 0 200 200">
  <defs>
    <style>
      .cls-1 {
        fill: #fff;
        opacity: .75;
      }

      .cls-2 {
        fill: #d98b7e;
      }
    </style>
  </defs>
  <g id="Layer_1-2" data-name="Layer 1">
    <g>
      <rect class="cls-2" width="200" height="200"/>
      <path class="cls-1" d="m55.37,89.74l14.91,6.31c1.84-3.69,3.81-7.25,5.89-10.68,2.09-3.44,4.39-6.82,6.9-10.15l-9.95-1.93c-.35-.09-.68-.08-1.01.03-.33.11-.62.29-.88.55l-15.87,15.87Zm23.02,12.7l19.26,19.15c5.05-2.11,10.29-5.03,15.71-8.76,5.42-3.73,10.57-8.03,15.45-12.91,7.61-7.61,13.49-15.89,17.65-24.86,4.16-8.97,6.22-18.19,6.17-27.67-9.48-.04-18.71,2.01-27.69,6.17-8.98,4.16-17.27,10.04-24.88,17.65-4.88,4.88-9.18,10.04-12.91,15.48-3.73,5.45-6.65,10.69-8.76,15.74Zm32.65-13.56c-2.29-2.29-3.44-5.08-3.44-8.37s1.15-6.08,3.44-8.37c2.29-2.29,5.11-3.44,8.45-3.44s6.16,1.15,8.45,3.44c2.29,2.29,3.44,5.08,3.44,8.37s-1.15,6.08-3.44,8.37c-2.29,2.29-5.11,3.44-8.45,3.44s-6.16-1.15-8.45-3.44Zm-.76,55.84l15.87-15.87c.26-.26.45-.55.55-.88.11-.33.12-.66.03-1.01l-1.93-9.95c-3.33,2.51-6.71,4.79-10.15,6.84-3.44,2.05-7,4-10.68,5.84,0,0,6.31,15.02,6.31,15.02Zm51.62-106.63c1.45,13.06-.09,25.44-4.63,37.14-4.54,11.7-12.01,22.75-22.42,33.15l-.59.59-.59.59,3.06,15.35c.41,2.04.32,4.03-.27,5.96-.59,1.93-1.61,3.62-3.06,5.07l-26.58,26.52-12.74-29.93-26.57-26.57-29.93-12.8,26.41-26.52c1.45-1.45,3.16-2.48,5.12-3.1,1.96-.61,3.97-.72,6.01-.31l15.48,3.13c.22-.22.4-.41.55-.59.15-.17.34-.37.55-.59,10.4-10.4,21.44-17.88,33.1-22.44,11.66-4.55,24.03-6.11,37.09-4.65ZM49.28,126.68c3.3-3.3,7.33-4.96,12.08-4.97,4.75-.01,8.78,1.63,12.08,4.93,3.3,3.3,4.94,7.33,4.9,12.08-.03,4.75-1.7,8.78-5.01,12.08-2.56,2.56-6.77,4.77-12.62,6.6-5.85,1.84-13.35,3.31-22.52,4.41,1.1-9.16,2.59-16.67,4.45-22.52,1.86-5.85,4.07-10.06,6.64-12.62Zm7.25,7.21c-1.22,1.22-2.39,3.31-3.52,6.28-1.13,2.97-1.9,6.01-2.31,9.1,3.09-.41,6.13-1.17,9.1-2.29,2.97-1.12,5.07-2.28,6.28-3.5,1.36-1.36,2.07-2.98,2.14-4.88.07-1.9-.57-3.53-1.93-4.88s-2.98-2.01-4.88-1.95c-1.9.06-3.53.76-4.88,2.12Z"/>
    </g>
  </g>
</svg>