<?xml version="1.0" encoding="UTF-8"?>
<svg id="Layer_2" data-name="Layer 2" xmlns="http://www.w3.org/2000/svg" viewBox="0 0 200 200">
  <defs>
    <style>
      .cls-1 {
        fill: #fff;
        opacity: .75;
      }

      .cls-2 {
        fill: #d98b7e;
      }
    </style>
  </defs>
  <g id="Layer_1-2" data-name="Layer 1">
    <g>
      <rect class="cls-2" width="200" height="200"/>
      <path class="cls-1" d="m44.08,134.33c-3-.37-5.56-1.72-7.67-4.03-2.11-2.32-3.17-5.05-3.17-8.19v-56c0-1.53.42-2.99,1.26-4.39.84-1.4,2.02-2.51,3.55-3.33l54.78-27.39,53.69,27.39c1.26.58,2.3,1.54,3.11,2.87.81,1.33,1.38,2.73,1.69,4.18h-14.67l-43.83-22.22-48.75,24.19v66.92Zm23.06,26.67c-3.65,0-6.74-1.26-9.26-3.79-2.53-2.53-3.79-5.62-3.79-9.26v-59.44c0-3.65,1.26-6.74,3.79-9.26,2.53-2.53,5.62-3.79,9.26-3.79h90.28c3.65,0,6.74,1.26,9.26,3.79,2.53,2.53,3.79,5.62,3.79,9.26v59.44c0,3.65-1.26,6.74-3.79,9.26s-5.62,3.79-9.26,3.79h-90.28Zm45.14-39.42l-47.36-24.19v50.56c0,.65.21,1.18.63,1.6.42.42.95.63,1.6.63h90.28c.65,0,1.18-.21,1.6-.63.42-.42.63-.95.63-1.6v-50.56s-47.36,24.19-47.36,24.19Zm0-11.11l46.53-23.78c-.23-.14-.45-.24-.66-.31-.21-.07-.45-.1-.73-.1h-90.28c-.23,0-.46.03-.69.1-.23.07-.46.17-.69.31,0,0,46.53,23.78,46.53,23.78Zm47.36-24.19h-94.72,94.72Z"/>
    </g>
  </g>
</svg>