<?xml version="1.0" encoding="UTF-8"?>
<svg id="Layer_2" data-name="Layer 2" xmlns="http://www.w3.org/2000/svg" viewBox="0 0 200 200">
  <defs>
    <style>
      .cls-1 {
        fill: #fff;
        opacity: .75;
      }

      .cls-2 {
        fill: #d98b7e;
      }
    </style>
  </defs>
  <g id="Layer_1-2" data-name="Layer 1">
    <g>
      <rect class="cls-2" width="200" height="200"/>
      <path class="cls-1" d="m82.14,173.53l-2.95-23.58c-2.07-.69-4.2-1.67-6.38-2.92-2.18-1.25-4.13-2.59-5.84-4.02l-21.84,9.23-17.86-30.96,18.89-14.27c-.18-1.15-.31-2.31-.38-3.47-.07-1.16-.11-2.32-.11-3.47s.04-2.22.11-3.36c.07-1.14.2-2.38.38-3.73l-18.89-14.27,17.86-30.81,21.76,9.15c1.87-1.48,3.86-2.83,5.98-4.06,2.12-1.23,4.2-2.21,6.24-2.95l3.02-23.58h35.72l2.95,23.65c2.32.84,4.42,1.83,6.3,2.95,1.88,1.13,3.78,2.45,5.69,3.98l22.06-9.15,17.86,30.81-19.19,14.5c.28,1.25.43,2.42.45,3.51.02,1.09.04,2.18.04,3.28s-.02,2.12-.07,3.21c-.05,1.09-.23,2.33-.54,3.73l19.04,14.35-17.86,30.96-21.79-9.3c-1.92,1.53-3.87,2.88-5.86,4.06-1.99,1.18-4.04,2.14-6.13,2.88l-2.95,23.65h-35.72Zm10.12-11.61h15.21l2.78-20.73c3.95-1.03,7.56-2.5,10.83-4.4,3.27-1.9,6.42-4.34,9.46-7.33l19.23,8.08,7.62-13.16-16.79-12.65c.64-2,1.08-3.97,1.32-5.89.23-1.93.35-3.87.35-5.83s-.12-3.96-.35-5.83c-.23-1.88-.67-3.79-1.32-5.75l16.94-12.8-7.62-13.16-19.45,8.2c-2.59-2.77-5.69-5.21-9.31-7.34-3.62-2.12-7.28-3.63-10.98-4.51l-2.44-20.73h-15.36l-2.56,20.66c-3.95.93-7.6,2.36-10.94,4.29-3.34,1.93-6.53,4.41-9.57,7.44l-19.23-8.01-7.62,13.16,16.72,12.46c-.64,1.84-1.1,3.75-1.35,5.73-.26,1.98-.39,4.07-.39,6.27,0,2.01.13,3.99.39,5.92.26,1.93.68,3.85,1.28,5.73l-16.64,12.65,7.62,13.16,19.16-8.13c2.94,3.02,6.08,5.49,9.42,7.41,3.34,1.93,7.04,3.4,11.09,4.44l2.52,20.66Zm7.83-38.7c6.44,0,11.92-2.26,16.44-6.78,4.52-4.52,6.78-10,6.78-16.44s-2.26-11.92-6.78-16.44c-4.52-4.52-10-6.78-16.44-6.78s-12.02,2.26-16.5,6.78c-4.48,4.52-6.72,10-6.72,16.44s2.24,11.92,6.72,16.44c4.48,4.52,9.98,6.78,16.5,6.78Z"/>
    </g>
  </g>
</svg>