<?xml version="1.0" encoding="UTF-8"?>
<svg id="Layer_2" data-name="Layer 2" xmlns="http://www.w3.org/2000/svg" viewBox="0 0 200 200">
  <defs>
    <style>
      .cls-1 {
        fill: #fff;
        opacity: .75;
      }

      .cls-2 {
        fill: #d98b7e;
      }
    </style>
  </defs>
  <g id="Layer_1-2" data-name="Layer 1">
    <g>
      <rect class="cls-2" width="200" height="200"/>
      <path class="cls-1" d="m100,175.63c-3.29,0-6.2-.87-8.73-2.6-2.53-1.74-4.3-4.01-5.31-6.83h-2.37c-3.35,0-6.24-1.21-8.67-3.64-2.42-2.42-3.64-5.31-3.64-8.67v-26.91c-8.28-5.02-14.79-11.74-19.54-20.17-4.75-8.43-7.12-17.46-7.12-27.08,0-15.44,5.37-28.52,16.1-39.26,10.74-10.74,23.82-16.1,39.26-16.1s28.52,5.37,39.26,16.1c10.74,10.74,16.1,23.82,16.1,39.26,0,9.79-2.37,18.86-7.12,27.21-4.75,8.35-11.26,15.03-19.54,20.05v26.91c0,3.35-1.21,6.24-3.64,8.67-2.42,2.42-5.31,3.64-8.67,3.64h-2.37c-1.01,2.82-2.78,5.09-5.31,6.83-2.53,1.74-5.44,2.6-8.73,2.6Zm-16.4-21.74h32.81v-7.7h-32.81v7.7Zm0-14.95h32.81v-7.95h-32.81v7.95Zm-1.64-20.25h13.16v-23.88l-17.57-17.57,6.88-6.88,15.58,15.58,15.58-15.58,6.88,6.88-17.57,17.57v23.88h13.16c7.38-3.55,13.4-8.78,18.04-15.69,4.65-6.9,6.97-14.66,6.97-23.27,0-12.03-4.17-22.21-12.51-30.55-8.34-8.34-18.52-12.51-30.55-12.51s-22.21,4.17-30.55,12.51c-8.34,8.34-12.51,18.52-12.51,30.55,0,8.61,2.32,16.37,6.97,23.27,4.65,6.9,10.66,12.13,18.04,15.69Z"/>
    </g>
  </g>
</svg>