<?xml version="1.0" encoding="UTF-8"?>
<svg id="Layer_2" data-name="Layer 2" xmlns="http://www.w3.org/2000/svg" viewBox="0 0 200 200">
  <defs>
    <style>
      .cls-1 {
        fill: #fff;
        opacity: .75;
      }

      .cls-2 {
        fill: #d98b7e;
      }
    </style>
  </defs>
  <g id="Layer_1-2" data-name="Layer 1">
    <g>
      <rect class="cls-2" width="200" height="200"/>
      <path class="cls-1" d="m88.93,158.97c5.67-10.74,13.04-18.02,22.09-21.82,9.05-3.81,16.82-5.71,23.32-5.71,2.78,0,5.46.22,8.04.65s5.1,1.01,7.58,1.72c3.2-4.59,5.85-9.86,7.95-15.83,2.1-5.96,3.15-12.29,3.15-18.98,0-17.04-5.91-31.48-17.74-43.31-11.83-11.83-26.27-17.74-43.31-17.74s-31.48,5.91-43.31,17.74c-11.83,11.83-17.74,26.27-17.74,43.31,0,6.16.85,12.01,2.56,17.55,1.71,5.53,4.12,10.62,7.24,15.27,5.02-2.69,10.14-4.7,15.37-6.02,5.23-1.33,10.61-1.99,16.14-1.99,3.63,0,7.14.3,10.52.9,3.39.6,6.48,1.33,9.29,2.18-2.19,1.23-4.24,2.6-6.13,4.09s-3.72,3.12-5.47,4.87c-1.23-.25-2.56-.42-3.98-.49-1.42-.07-2.83-.11-4.22-.11-4.22,0-8.4.49-12.56,1.48-4.15.99-8.07,2.47-11.76,4.45,4.41,4.71,9.44,8.56,15.07,11.56,5.64,3,11.61,5.08,17.92,6.22Zm11.08,12.53c-10.03,0-19.45-1.9-28.28-5.71-8.82-3.81-16.5-8.97-23.02-15.49-6.53-6.52-11.69-14.2-15.5-23.01-3.81-8.82-5.71-18.24-5.71-28.27,0-10.03,1.9-19.45,5.71-28.28,3.81-8.82,8.97-16.5,15.49-23.02,6.52-6.53,14.2-11.69,23.01-15.5,8.82-3.81,18.24-5.71,28.27-5.71s19.45,1.9,28.28,5.71c8.82,3.81,16.5,8.97,23.02,15.49,6.53,6.52,11.69,14.2,15.5,23.01,3.81,8.82,5.71,18.24,5.71,28.27s-1.9,19.45-5.71,28.28c-3.81,8.82-8.97,16.5-15.49,23.02-6.52,6.53-14.2,11.69-23.01,15.5-8.82,3.81-18.24,5.71-28.27,5.71Zm-19.09-62.96c-6.89,0-12.74-2.41-17.57-7.24-4.82-4.82-7.24-10.68-7.24-17.57,0-6.89,2.41-12.74,7.24-17.57,4.82-4.82,10.68-7.24,17.57-7.24s12.74,2.41,17.57,7.24c4.82,4.82,7.24,10.68,7.24,17.57s-2.41,12.74-7.24,17.57c-4.82,4.82-10.68,7.24-17.57,7.24Zm0-11.45c3.67,0,6.81-1.31,9.43-3.93,2.62-2.62,3.93-5.76,3.93-9.43s-1.31-6.81-3.93-9.43c-2.62-2.62-5.76-3.93-9.43-3.93s-6.81,1.31-9.43,3.93c-2.62,2.62-3.93,5.76-3.93,9.43s1.31,6.81,3.93,9.43c2.62,2.62,5.76,3.93,9.43,3.93Zm53.42,20.55c-5.22,0-9.63-1.8-13.23-5.41-3.6-3.6-5.41-8.01-5.41-13.23s1.8-9.63,5.41-13.23c3.6-3.6,8.01-5.41,13.23-5.41s9.63,1.8,13.23,5.41c3.6,3.6,5.41,8.01,5.41,13.23,0,5.22-1.8,9.63-5.41,13.23-3.6,3.6-8.01,5.41-13.23,5.41Z"/>
    </g>
  </g>
</svg>