<?xml version="1.0" encoding="UTF-8"?>
<svg id="Layer_2" data-name="Layer 2" xmlns="http://www.w3.org/2000/svg" viewBox="0 0 200 200">
  <defs>
    <style>
      .cls-1 {
        fill: #4d9f9d;
      }

      .cls-2 {
        fill: #fff;
        opacity: .6;
      }
    </style>
  </defs>
  <g id="Layer_1-2" data-name="Layer 1">
    <rect class="cls-1" width="200" height="200"/>
    <path class="cls-2" d="m54.25,140.51c6.51-4.83,13.6-8.64,21.27-11.44,7.67-2.8,15.83-4.2,24.49-4.2s16.82,1.4,24.49,4.2c7.67,2.8,14.76,6.61,21.27,11.44,4.76-5.23,8.53-11.29,11.31-18.17,2.78-6.88,4.17-14.33,4.17-22.35,0-16.97-5.96-31.42-17.89-43.35-11.93-11.93-26.38-17.89-43.35-17.89s-31.42,5.96-43.35,17.89c-11.93,11.93-17.89,26.38-17.89,43.35,0,8.02,1.39,15.47,4.17,22.35,2.78,6.88,6.55,12.94,11.31,18.17Zm45.76-34.77c-6.99,0-12.88-2.4-17.68-7.2-4.8-4.8-7.2-10.69-7.2-17.68s2.4-12.88,7.2-17.68c4.8-4.8,10.69-7.2,17.68-7.2s12.88,2.4,17.68,7.2c4.8,4.8,7.2,10.69,7.2,17.68s-2.4,12.88-7.2,17.68c-4.8,4.8-10.69,7.2-17.68,7.2Zm0,66.98c-10.1,0-19.57-1.9-28.42-5.7-8.85-3.8-16.54-8.97-23.09-15.52-6.55-6.55-11.72-14.24-15.52-23.09-3.8-8.85-5.7-18.32-5.7-28.42,0-10.1,1.9-19.57,5.7-28.42,3.8-8.85,8.97-16.54,15.52-23.09,6.55-6.55,14.24-11.72,23.09-15.52,8.85-3.8,18.32-5.7,28.42-5.7s19.57,1.9,28.42,5.7c8.85,3.8,16.54,8.97,23.09,15.52,6.55,6.55,11.72,14.24,15.52,23.09,3.8,8.85,5.7,18.32,5.7,28.42s-1.9,19.57-5.7,28.42c-3.8,8.85-8.97,16.54-15.52,23.09-6.55,6.55-14.24,11.72-23.09,15.52-8.85,3.8-18.32,5.7-28.42,5.7Zm0-11.48c6.91,0,13.57-1.11,19.98-3.33,6.41-2.22,12.11-5.33,17.08-9.33-4.98-3.85-10.6-6.85-16.86-8.99-6.27-2.15-13-3.22-20.21-3.22s-13.95,1.06-20.24,3.19c-6.29,2.12-11.9,5.14-16.83,9.03,4.98,3.99,10.67,7.1,17.08,9.33,6.41,2.22,13.08,3.33,19.98,3.33Zm0-66.98c3.81,0,6.99-1.28,9.55-3.84,2.56-2.56,3.84-5.75,3.84-9.55s-1.28-6.99-3.84-9.55c-2.56-2.56-5.75-3.84-9.55-3.84s-6.99,1.28-9.55,3.84c-2.56,2.56-3.84,5.75-3.84,9.55s1.28,6.99,3.84,9.55c2.56,2.56,5.75,3.84,9.55,3.84Z"/>
  </g>
</svg>