<?xml version="1.0" encoding="UTF-8"?>
<svg id="Layer_2" data-name="Layer 2" xmlns="http://www.w3.org/2000/svg" viewBox="0 0 200 200">
  <defs>
    <style>
      .cls-1 {
        fill: #fac064;
      }

      .cls-2 {
        fill: #fff;
        opacity: .6;
      }
    </style>
  </defs>
  <g id="Layer_1-2" data-name="Layer 1">
    <rect class="cls-1" width="200" height="200"/>
    <path class="cls-2" d="m100.46,151.97l20.12-20.01-20.12-20.01-6.42,6.42,9.41,9.41c-4.75.08-9.12-.56-13.12-1.91-3.99-1.35-7.36-3.39-10.08-6.12-2.7-2.7-4.74-5.78-6.13-9.25-1.39-3.46-2.08-6.93-2.08-10.39,0-2.17.26-4.34.79-6.51.53-2.17,1.27-4.25,2.25-6.24l-6.8-6.51c-1.83,2.94-3.18,6.03-4.05,9.27-.87,3.23-1.31,6.52-1.31,9.87,0,4.7.92,9.34,2.76,13.91,1.84,4.57,4.55,8.66,8.13,12.27,3.58,3.6,7.92,6.29,13.03,8.07,5.11,1.78,10.36,2.7,15.74,2.78l-8.52,8.52s6.42,6.42,6.42,6.42Zm31.36-32.83c1.83-2.94,3.17-6.03,4.05-9.27s1.31-6.52,1.31-9.87c0-4.69-.9-9.35-2.7-13.98-1.8-4.63-4.5-8.73-8.1-12.31-3.55-3.6-7.91-6.27-13.07-8.01-5.16-1.74-10.42-2.61-15.79-2.61l8.52-8.64-6.42-6.42-20.12,20.01,20.12,20.01,6.42-6.42-9.53-9.53c4.67,0,9.06.69,13.18,2.08,4.11,1.39,7.5,3.42,10.17,6.09,2.66,2.67,4.7,5.74,6.09,9.21,1.4,3.47,2.1,6.94,2.1,10.41,0,2.17-.26,4.34-.79,6.51-.53,2.17-1.27,4.25-2.25,6.24,0,0,6.8,6.51,6.8,6.51Zm-31.8,53.59c-10.06,0-19.51-1.91-28.36-5.73-8.85-3.82-16.55-9-23.1-15.54-6.55-6.54-11.73-14.24-15.55-23.09-3.82-8.85-5.73-18.3-5.73-28.36,0-10.06,1.91-19.51,5.73-28.36,3.82-8.85,9-16.55,15.54-23.1,6.54-6.55,14.24-11.73,23.09-15.55,8.85-3.82,18.3-5.73,28.36-5.73s19.51,1.91,28.36,5.73c8.85,3.82,16.55,9,23.1,15.54,6.55,6.54,11.73,14.24,15.55,23.09,3.82,8.85,5.73,18.3,5.73,28.36s-1.91,19.51-5.73,28.36c-3.82,8.85-9,16.55-15.54,23.1-6.54,6.55-14.24,11.73-23.09,15.55-8.85,3.82-18.3,5.73-28.36,5.73Zm-.01-11.48c17.1,0,31.58-5.93,43.44-17.8,11.87-11.87,17.8-26.35,17.8-43.44s-5.93-31.58-17.8-43.44c-11.87-11.87-26.35-17.8-43.44-17.8s-31.58,5.93-43.44,17.8c-11.87,11.87-17.8,26.35-17.8,43.44s5.93,31.58,17.8,43.44c11.87,11.87,26.35,17.8,43.44,17.8Z"/>
  </g>
</svg>